<?xml version="1.0" encoding="UTF-8"?>
<svg xmlns="http://www.w3.org/2000/svg" xmlns:xlink="http://www.w3.org/1999/xlink" width="64pt" height="64pt" viewBox="0 0 64 64" version="1.1">
<g id="surface501388">
<path style=" stroke:none;fill-rule:nonzero;fill:rgb(92.941176%,47.058824%,60%);fill-opacity:1;" d="M 38 33 C 38 36.3125 35.3125 39 32 39 C 28.6875 39 26 36.3125 26 33 C 26 29.6875 28.6875 27 32 27 C 35.3125 27 38 29.6875 38 33 Z M 38 33 "/>
<path style=" stroke:none;fill-rule:nonzero;fill:rgb(100%,100%,100%);fill-opacity:1;" d="M 32 40 C 28.140625 40 25 36.859375 25 33 C 25 29.140625 28.140625 26 32 26 C 35.859375 26 39 29.140625 39 33 C 39 36.859375 35.859375 40 32 40 Z M 32 28 C 29.242188 28 27 30.242188 27 33 C 27 35.757812 29.242188 38 32 38 C 34.757812 38 37 35.757812 37 33 C 37 30.242188 34.757812 28 32 28 Z M 32 28 "/>
<path style=" stroke:none;fill-rule:nonzero;fill:rgb(100%,100%,100%);fill-opacity:1;" d="M 32 46 C 15.179688 46 2 40.289062 2 33 C 2 25.710938 15.179688 20 32 20 C 48.820312 20 62 25.710938 62 33 C 62 40.289062 48.820312 46 32 46 Z M 32 22 C 16.820312 22 4 27.035156 4 33 C 4 38.964844 16.820312 44 32 44 C 47.179688 44 60 38.964844 60 33 C 60 27.035156 47.179688 22 32 22 Z M 32 22 "/>
<path style=" stroke:none;fill-rule:nonzero;fill:rgb(100%,100%,100%);fill-opacity:1;" d="M 20.316406 59.828125 C 19.09375 59.828125 17.980469 59.546875 17 58.980469 C 13.851562 57.160156 12.574219 52.6875 13.40625 46.382812 C 14.199219 40.378906 16.804688 33.320312 20.742188 26.5 C 24.679688 19.679688 29.492188 13.894531 34.296875 10.203125 C 39.339844 6.332031 43.851562 5.203125 47 7.019531 C 50.148438 8.839844 51.425781 13.3125 50.59375 19.617188 C 49.800781 25.617188 47.195312 32.679688 43.257812 39.5 C 39.320312 46.320312 34.507812 52.105469 29.703125 55.796875 C 26.230469 58.460938 23.011719 59.828125 20.316406 59.828125 Z M 43.683594 8.179688 C 41.449219 8.179688 38.605469 9.417969 35.515625 11.792969 C 30.914062 15.324219 26.285156 20.902344 22.472656 27.5 C 18.664062 34.097656 16.148438 40.894531 15.390625 46.644531 C 14.679688 52.015625 15.632812 55.878906 18 57.246094 C 20.367188 58.617188 24.1875 57.507812 28.484375 54.207031 C 33.085938 50.675781 37.714844 45.097656 41.527344 38.5 C 45.335938 31.902344 47.851562 25.105469 48.609375 19.355469 C 49.320312 13.984375 48.367188 10.121094 46 8.753906 C 45.335938 8.367188 44.554688 8.179688 43.683594 8.179688 Z M 43.683594 8.179688 "/>
<path style=" stroke:none;fill-rule:nonzero;fill:rgb(100%,100%,100%);fill-opacity:1;" d="M 43.683594 59.828125 C 40.988281 59.828125 37.769531 58.460938 34.296875 55.796875 C 29.492188 52.105469 24.679688 46.320312 20.742188 39.5 C 16.804688 32.679688 14.199219 25.617188 13.40625 19.613281 C 12.574219 13.3125 13.851562 8.839844 17 7.019531 C 20.148438 5.203125 24.660156 6.335938 29.703125 10.207031 C 34.507812 13.894531 39.320312 19.683594 43.257812 26.5 C 47.195312 33.320312 49.800781 40.382812 50.59375 46.386719 C 51.425781 52.6875 50.148438 57.160156 47 58.980469 C 46.019531 59.546875 44.902344 59.828125 43.683594 59.828125 Z M 20.316406 8.179688 C 19.441406 8.179688 18.664062 8.367188 18 8.753906 C 15.632812 10.117188 14.679688 13.980469 15.390625 19.355469 C 16.148438 25.105469 18.664062 31.902344 22.472656 38.5 C 26.285156 45.097656 30.914062 50.675781 35.515625 54.207031 C 39.8125 57.507812 43.632812 58.613281 46 57.246094 C 48.367188 55.882812 49.320312 52.019531 48.609375 46.644531 C 47.851562 40.894531 45.335938 34.097656 41.527344 27.5 C 37.714844 20.902344 33.085938 15.324219 28.484375 11.792969 C 25.394531 9.417969 22.550781 8.179688 20.316406 8.179688 Z M 20.316406 8.179688 "/>
<path style=" stroke:none;fill-rule:nonzero;fill:rgb(100%,100%,100%);fill-opacity:1;" d="M 10.464844 46.972656 C 10.417969 46.972656 10.375 46.96875 10.328125 46.964844 L 8.347656 46.699219 C 7.800781 46.625 7.414062 46.125 7.488281 45.574219 C 7.5625 45.027344 8.0625 44.644531 8.613281 44.71875 L 10.59375 44.980469 C 11.140625 45.054688 11.527344 45.554688 11.453125 46.105469 C 11.386719 46.605469 10.957031 46.972656 10.464844 46.972656 Z M 10.464844 46.972656 "/>
<path style=" stroke:none;fill-rule:nonzero;fill:rgb(100%,100%,100%);fill-opacity:1;" d="M 8.195312 51.886719 C 7.65625 51.886719 7.214844 51.460938 7.195312 50.917969 C 7.175781 50.367188 7.609375 49.902344 8.160156 49.886719 L 10.160156 49.820312 C 10.710938 49.78125 11.175781 50.230469 11.191406 50.785156 C 11.210938 51.335938 10.78125 51.800781 10.226562 51.816406 L 8.226562 51.882812 C 8.21875 51.886719 8.207031 51.886719 8.195312 51.886719 Z M 8.195312 51.886719 "/>
<path style=" stroke:none;fill-rule:nonzero;fill:rgb(100%,100%,100%);fill-opacity:1;" d="M 9.007812 57.09375 C 8.578125 57.09375 8.183594 56.816406 8.054688 56.386719 C 7.890625 55.855469 8.1875 55.296875 8.71875 55.136719 L 10.628906 54.554688 C 11.160156 54.386719 11.71875 54.6875 11.878906 55.21875 C 12.039062 55.746094 11.742188 56.304688 11.214844 56.464844 L 9.300781 57.050781 C 9.203125 57.078125 9.105469 57.09375 9.007812 57.09375 Z M 9.007812 57.09375 "/>
<path style=" stroke:none;fill-rule:nonzero;fill:rgb(100%,100%,100%);fill-opacity:1;" d="M 11.550781 61.851562 C 11.269531 61.851562 10.992188 61.734375 10.792969 61.503906 C 10.433594 61.085938 10.480469 60.453125 10.898438 60.09375 L 12.417969 58.789062 C 12.835938 58.433594 13.46875 58.476562 13.828125 58.898438 C 14.1875 59.316406 14.140625 59.949219 13.722656 60.308594 L 12.203125 61.609375 C 12.015625 61.773438 11.78125 61.851562 11.550781 61.851562 Z M 11.550781 61.851562 "/>
<path style=" stroke:none;fill-rule:nonzero;fill:rgb(100%,100%,100%);fill-opacity:1;" d="M 55.769531 18.71875 C 55.75 18.71875 55.730469 18.71875 55.710938 18.714844 L 53.714844 18.601562 C 53.164062 18.570312 52.742188 18.097656 52.777344 17.546875 C 52.808594 16.992188 53.28125 16.574219 53.832031 16.605469 L 55.828125 16.71875 C 56.378906 16.75 56.800781 17.222656 56.769531 17.777344 C 56.738281 18.308594 56.296875 18.71875 55.769531 18.71875 Z M 55.769531 18.71875 "/>
<path style=" stroke:none;fill-rule:nonzero;fill:rgb(100%,100%,100%);fill-opacity:1;" d="M 53.589844 13.796875 C 53.105469 13.796875 52.679688 13.441406 52.601562 12.945312 C 52.519531 12.398438 52.898438 11.890625 53.445312 11.808594 L 55.421875 11.511719 C 55.96875 11.4375 56.476562 11.804688 56.558594 12.351562 C 56.640625 12.898438 56.265625 13.40625 55.71875 13.488281 L 53.742188 13.785156 C 53.691406 13.792969 53.640625 13.796875 53.589844 13.796875 Z M 53.589844 13.796875 "/>
<path style=" stroke:none;fill-rule:nonzero;fill:rgb(100%,100%,100%);fill-opacity:1;" d="M 52.214844 9.335938 C 51.855469 9.335938 51.507812 9.140625 51.328125 8.800781 C 51.070312 8.3125 51.261719 7.707031 51.75 7.449219 L 53.519531 6.519531 C 54.007812 6.265625 54.613281 6.453125 54.871094 6.941406 C 55.128906 7.429688 54.9375 8.035156 54.449219 8.292969 L 52.679688 9.222656 C 52.53125 9.300781 52.371094 9.335938 52.214844 9.335938 Z M 52.214844 9.335938 "/>
<path style=" stroke:none;fill-rule:nonzero;fill:rgb(100%,100%,100%);fill-opacity:1;" d="M 49.265625 5.917969 C 49.066406 5.917969 48.863281 5.859375 48.6875 5.734375 C 48.238281 5.414062 48.132812 4.789062 48.453125 4.339844 L 49.609375 2.707031 C 49.929688 2.257812 50.554688 2.152344 51.003906 2.472656 C 51.453125 2.792969 51.5625 3.414062 51.242188 3.867188 L 50.082031 5.496094 C 49.886719 5.773438 49.578125 5.917969 49.265625 5.917969 Z M 49.265625 5.917969 "/>
</g>
</svg>
